<svg width="229" height="80" viewBox="0 0 229 80" fill="none" xmlns="http://www.w3.org/2000/svg">
<path d="M229 0H0V80H229V0Z" fill="#E30613"/>
<path d="M120.731 51.1892V28.8757H135.077V34.0541H126.71V51.1892H120.731Z" fill="white"/>
<path d="M153.133 51.1892V42.4541H144.248V51.1892H138.27V28.8757H144.248V37.2001H153.133V28.8757H159.122V51.1892H153.133Z" fill="white"/>
<path d="M186.855 28.8757V34.0541H193.846V51.1892H199.836V34.0541H206.86V28.8757H186.855Z" fill="white"/>
<path d="M178.048 51.1892V38.4757L168.524 51.1892H163.526V28.8757H169.515V41.4595L178.873 28.8757H184.037V51.1892H178.048Z" fill="white"/>
<path d="M86.3485 51.1892V37.9244L80.3703 44.9298L74.4031 37.9244V51.1892H68.4138V28.8757H74.315L80.3703 36.5514L86.4256 28.8757H92.3267V51.1892H86.3485Z" fill="white"/>
<path d="M103.689 43.3406H109.193L106.419 36.346L103.689 43.3406ZM112.364 51.1892L111.12 48.0649H101.817L100.573 51.1892H94.5396L103.755 28.8757H109.259L118.463 51.1892H112.364Z" fill="white"/>
<path d="M22.0852 33.4054C22.091 30.7102 23.1848 28.1271 25.1267 26.2222C27.0686 24.3174 29.7004 23.2461 32.4453 23.2433H56.3581V28.4109H32.4453C31.0961 28.4137 29.8029 28.9405 28.8479 29.8762C27.8929 30.812 27.3536 32.0807 27.3478 33.4054V42.0541C27.2389 43.1654 26.7588 44.2102 25.9821 45.0256C25.2055 45.841 24.176 46.3813 23.0541 46.5622L22.1182 46.7027L22.0852 33.4054Z" fill="white"/>
<path d="M22.0852 56.8216V51.6541H45.9981C47.3472 51.6512 48.6404 51.1244 49.5954 50.1887C50.5505 49.2529 51.0897 47.9842 51.0955 46.6595V38.4216C51.1139 37.2346 51.5578 36.0918 52.3491 35.1942C53.1404 34.2966 54.2285 33.7015 55.4223 33.5135L56.3581 33.3838V46.6595C56.3523 49.3548 55.2586 51.9379 53.3166 53.8427C51.3747 55.7475 48.7429 56.8188 45.9981 56.8216H22.0852Z" fill="white"/>
<path d="M42.343 46.7459V40.0648L39.2162 43.7297L36.1005 40.0648V46.7459H31.9719V33.6H35.8913L39.2162 37.827L42.5522 33.6H46.4606V46.7459H42.343Z" fill="white"/>
</svg>
