<svg width="102" height="95" viewBox="0 0 102 95" fill="none" xmlns="http://www.w3.org/2000/svg">
<path d="M102 0H0V95H102V0Z" fill="#BA0C2F"/>
<path d="M22.9342 40.6349V37.3419C22.9342 35.7887 22.493 35.4158 21.6111 35.4158C20.7291 35.4158 20.288 35.7887 20.288 37.3419V41.1319C20.288 43.3687 27.2182 49.4577 27.2182 52.5643V58.0319C27.2182 62.0704 24.2571 63.251 21.6111 63.251C18.965 63.251 16.0039 62.0704 16.0039 58.0319V56.3543L20.288 53.8691V57.659C20.288 59.2125 20.7291 59.5852 21.6111 59.5852C22.4301 59.5852 22.9342 59.2125 22.9342 57.659V54.4282C22.9342 50.0791 16.0039 46.4133 16.0039 41.3805V36.9691C16.0039 32.9305 18.965 31.75 21.6111 31.75C24.2571 31.75 27.2182 32.9305 27.2182 36.9691V38.0875L22.9342 40.6349Z" fill="white"/>
<path d="M51.6599 59.0881H55.125L56.3222 63.251H47.3759V31.75H51.6599V59.0881Z" fill="white"/>
<path d="M85.9976 31.7493V35.9121H81.9024V63.2502H77.6183V35.9121H73.8381L73.3972 31.7493H85.9976Z" fill="white"/>
<path d="M69.0496 31.7493H62.6234L59.3474 63.2502H63.2534L64.1985 54.8624H67.2224L68.0415 63.2502H72.3887L69.0496 31.7493ZM64.5764 50.6996L65.5214 39.143H66.0255L66.7815 50.6996H64.5764Z" fill="white"/>
<path d="M36.1622 31.7493H31.689V63.2502H35.9732V35.5394C37.7373 35.5394 38.6192 35.6015 38.6192 38.5838V46.1019C38.6192 47.096 37.7373 47.4066 36.7292 47.5308L37.7373 51.2589C41.1393 50.886 42.9034 49.3327 42.9034 44.8593V37.9003C42.8403 33.6754 40.8874 31.7493 36.1622 31.7493Z" fill="white"/>
<path d="M87.1915 27.9593V25.0391H88.5144C88.7665 25.0391 88.9554 25.0391 89.1444 25.1012L89.4594 25.3497C89.5225 25.4739 89.5854 25.5982 89.5854 25.7846C89.5854 25.9709 89.5225 26.1573 89.3966 26.2817C89.2704 26.4059 89.0815 26.5302 88.7665 26.5302L89.0185 26.6544C89.1444 26.7787 89.2075 26.9029 89.3335 27.0273L89.8375 27.8349H89.3335L88.9554 27.2137C88.8294 27.0273 88.7665 26.9029 88.7035 26.8408L88.5144 26.6544L88.3254 26.5923H88.1365H87.5694V27.9593H87.1915ZM87.5694 26.3438H88.3884C88.5775 26.3438 88.7035 26.3438 88.8294 26.2817L89.0815 26.0953L89.1444 25.8467L88.9554 25.5361C88.8925 25.4739 88.7035 25.4118 88.4515 25.4118H87.5694V26.3438Z" fill="white"/>
<path d="M85.5546 26.5924C85.5546 28.0836 86.8146 29.3262 88.3897 29.3262C89.9016 29.3262 91.1617 28.0836 91.1617 26.5924C91.1617 25.1013 89.9016 23.8586 88.3897 23.8586C86.8146 23.8586 85.5546 25.1013 85.5546 26.5924ZM85.8696 26.5924C85.8696 25.2255 87.0035 24.1693 88.3266 24.1693C89.6497 24.1693 90.7838 25.2255 90.7838 26.5924C90.7838 27.8972 89.7126 29.0156 88.3266 29.0156C87.0035 29.0156 85.8696 27.9592 85.8696 26.5924Z" fill="white"/>
</svg>
