<svg width="183" height="52" viewBox="0 0 183 52" fill="none" xmlns="http://www.w3.org/2000/svg">
<g clip-path="url(#clip0_1_568)">
<path d="M159.517 1.04165e-05H23.4419C17.3974 -0.00566308 11.5842 2.30648 7.21617 6.4537C2.84812 10.6009 0.262805 16.2627 0 22.2568H0V52H159.517C165.562 52.0057 171.375 49.6935 175.743 45.5463C180.111 41.3991 182.696 35.7374 182.959 29.7432V1.04165e-05H159.517Z" fill="#E30613"/>
<path d="M97.0904 35.4592V16.207H109.341V20.6786H102.197V35.4592H97.0904Z" fill="white"/>
<path d="M124.752 35.4592V27.9222H117.159V35.4592H112.052V16.207H117.159V23.3899H124.752V16.207H129.858V35.4592H124.752Z" fill="white"/>
<path d="M153.534 16.207V20.6786H159.507V35.4592H164.613V20.6786H170.606V16.207H153.534Z" fill="white"/>
<path d="M146.013 35.4592V24.4926L137.89 35.4592H133.619V16.207H138.725V27.0623L146.716 16.207H151.129V35.4592H146.013Z" fill="white"/>
<path d="M67.737 35.4592V24.0171L62.6307 30.067L57.5347 24.0171V35.4592H52.4284V16.207H57.4633L62.6307 22.8335L67.8084 16.207H72.8433V35.4592H67.737Z" fill="white"/>
<path d="M82.5564 28.691H87.3059L84.9312 22.621L82.5564 28.691ZM89.9661 35.4591L88.9469 32.7681H80.997L79.9778 35.4591H74.8817L82.5564 16.1868H87.2856L95.1437 35.4086L89.9661 35.4591Z" fill="white"/>
<path d="M12.8829 20.1221C12.8909 17.7974 13.8242 15.57 15.4793 13.9252C17.1345 12.2804 19.3774 11.3515 21.7195 11.3408H42.1038V15.8023H21.7195C20.5678 15.8076 19.465 16.2648 18.6517 17.0741C17.8383 17.8833 17.3803 18.979 17.3776 20.1221V27.6085C17.286 28.568 16.8759 29.4702 16.2118 30.1733C15.5477 30.8764 14.6672 31.3407 13.7084 31.4933L12.9134 31.6147L12.8829 20.1221Z" fill="white"/>
<path d="M12.8829 40.3253V35.8638H33.2672C34.4179 35.8611 35.5207 35.4062 36.3344 34.5985C37.148 33.7909 37.6063 32.6962 37.609 31.5541V24.4723C37.6153 23.4423 37.9895 22.448 38.6651 21.6662C39.3408 20.8844 40.2739 20.3659 41.2986 20.2031L42.0936 20.0918V31.5541C42.0882 33.8787 41.1555 36.1066 39.4994 37.7503C37.8434 39.3941 35.5989 40.3199 33.257 40.3253H12.8829Z" fill="white"/>
<path d="M30.1687 31.6349V25.8684L27.5086 29.0248L24.8484 25.8684V31.6349H21.322V20.2839H24.665L27.5086 23.9361L30.3522 20.2839H33.6952V31.6349H30.1687Z" fill="white"/>
</g>
<defs>
<clipPath id="clip0_1_568">
<rect width="183" height="52" fill="white"/>
</clipPath>
</defs>
</svg>
