<svg width="32" height="32" viewBox="0 0 32 32" fill="none" xmlns="http://www.w3.org/2000/svg">
<path fill-rule="evenodd" clip-rule="evenodd" d="M32 16C32 24.8366 24.8366 32 16 32C7.16344 32 0 24.8366 0 16C0 7.16344 7.16344 0 16 0C24.8366 0 32 7.16344 32 16ZM24.2253 9.22803C25.082 9.45874 25.7575 10.1342 25.988 10.991C26.4164 12.5559 26.4 15.8179 26.4 15.8179C26.4 15.8179 26.4 19.0633 25.9882 20.6283C25.7575 21.485 25.0821 22.1604 24.2253 22.391C22.6602 22.803 16.4001 22.803 16.4001 22.803C16.4001 22.803 10.1562 22.803 8.57476 22.3747C7.71795 22.1439 7.04265 21.4685 6.81194 20.6118C6.40007 19.0633 6.40007 15.8014 6.40007 15.8014C6.40007 15.8014 6.40007 12.5559 6.81194 10.991C7.04241 10.1343 7.73442 9.44226 8.57463 9.21179C10.1397 8.7998 16.3998 8.7998 16.3998 8.7998C16.3998 8.7998 22.6602 8.7998 24.2253 9.22803ZM19.6125 15.8014L14.4067 12.8031V18.7997L19.6125 15.8014Z" fill="white"/>
</svg>
